# xmcd CD database file generated by Grip 2.95
# 
# Track frame offsets:
#       150
#       14150
#       31415
#       45272
#       66492
#       86425
#       101220
#       116154
#       129885
#       147165
#       160170
#       185512
#       206672
#       219385
#       237032
#       240250
#       262642
#       274395
#       305237
# 
# Disc length: 4426 seconds
# 
# Revision: 3
# Processed by: cddbd v1.4b42PL0 Copyright (c) Steve Scherf et al.
# Submitted via: Grip 2.95
# 
DISCID=0e114813
DTITLE=David Bromberg Band - Reckless Abandon/Bandit In a Bathing Suit
DYEAR=1900
DGENRE=
TTITLE0=I want to go home
TTITLE1=Stealin'
TTITLE2=Medley: Sally Goodin'/Old Joe Clark/Wheel Hoss
TTITLE3=Child's Song
TTITLE4=Mrs Delion's Lament
TTITLE5=Medley: Battle of Bull Run/Paddy on the Turnpike/Rover's Fancy
TTITLE6=What a Town
TTITLE7=Baby Breeze
TTITLE8=Nobody's fault but mine
TTITLE9=Bandit in a bathing suit
TTITLE10=If you don't want me baby
TTITLE11=Queen Ellen
TTITLE12=Sweet sweet sadness
TTITLE13=Peanut Man
TTITLE14=Debby Boone
TTITLE15=Love Please Come Home/Blackberry blossom/dixie hoedown/june apple
TTITLE16=Ugly hour
TTITLE17=Travelling Man
TTITLE18=Northeast Texas Women
EXTD=
EXTT0=
EXTT1=
EXTT2=
EXTT3=
EXTT4=
EXTT5=
EXTT6=
EXTT7=
EXTT8=
EXTT9=
EXTT10=
EXTT11=
EXTT12=
EXTT13=
EXTT14=
EXTT15=
EXTT16=
EXTT17=
EXTT18=
PLAYORDER=
